<svg xmlns="http://www.w3.org/2000/svg" width="103" height="104" fill="none"><path fill="#007DC5" fill-rule="evenodd" d="M51.5 22.393c16.192 0 29.323 13.259 29.323 29.607S67.693 81.607 51.5 81.607a28.97 28.97 0 0 1-15.034-4.186c8.091-17.579 22.342-32.458 35.928-41.894-1.84.534-4.147.942-5.974 1.176l-2.47-2.057c-6.258 1.624-18.776 3.278-19.574-.548s4.94-5.688 10.96-6.677l-2.947-2.404c-7.792 1.397-12.08 5.414-9.915 10.205 2.56 5.664 11.614 3.736 17.887 3.152-8.952 3.59-32.352 5.397-24.335-8.083-7.884 6.63-3.418 11.528 3.258 13.068 5.248 1.21 13.814-.765 19.633-2.455-8.948 3.325-17.723 6.957-22.891 11.48v4.324c6.471-6.308 14.6-11.033 22.837-14.513-8.74 4.912-16.607 10.32-22.837 17.037v5.794c6.09-8.209 14.979-16.496 22.902-21.437-7.717 6.562-16.346 15.076-22.902 24.617v8.943A29.65 29.65 0 0 1 22.178 52c0-16.348 13.131-29.607 29.321-29.607m-3.844 44.023v1.421h.854v5.356h1.455v-6.777zm6.703 5.22-.737 1.557h1.592q.945-2.01 1.148-2.54t.34-1.118q.13-.591.131-.986 0-1.063-.586-1.692-.586-.628-1.566-.63-.959 0-1.552.65-.589.652-.589 1.713 0 .958.453 1.545.457.585 1.195.586.257 0 .605-.106zm1.012-3.112q0-.441-.183-.71a.57.57 0 0 0-.488-.266.63.63 0 0 0-.512.268q-.205.27-.206.677 0 .477.194.758.193.283.515.284c.186 0 .342-.1.477-.296q.203-.294.203-.715m4.813-2.108-1.981 4.326v1.101h2.152v1.35h1.391v-1.35h.524v-1.228h-.524v-4.199zm.15 2.048-.974 2.15h.995v-2.15zm5.41-2.225h-.02q-1.04 0-1.62.919-.575.917-.575 2.595 0 1.907.6 2.762.6.856 1.615.857 1.072 0 1.647-.916.576-.912.575-2.633 0-1.766-.565-2.676-.564-.91-1.657-.909m-.754 3.502q0 2.173.745 2.174c.266 0 .46-.163.579-.48q.181-.48.18-1.527.001-1.153-.18-1.678-.179-.524-.59-.525-.733.001-.734 2.036M44.13 26.393c-12.034 4.147-8.105 13.654 1.572 13.542-4.996-.95-10.788-7.382-1.571-13.542M51.5 0C23.062 0 0 23.286 0 52s23.063 52 51.5 52c28.436 0 51.5-23.286 51.5-52S79.939 0 51.5 0m0 1.923C24.113 1.923 1.903 24.35 1.903 52s22.21 50.077 49.595 50.077S101.094 79.652 101.094 52 78.886 1.923 51.499 1.923M27.675 26.988l.118-.128a.8.8 0 0 0-.094-.194c-.052-.138-.157-.215-.279-.33-.187-.058-.395-.008-.586-.002l-.108.004c-.16.005-.29.132-.439.137-.054.056-.474.118-.44.215q-.196.215-.395.428c-.051.055-.039-.199-.027-.237-.004-.136-.013-.337.024-.462a.3.3 0 0 1-.003-.11c.04-.042-.015-.282-.016-.36-.006-.178-.141-.208-.255-.316-.118-.112-.336-.003-.483.001-.071.076-.302.03-.386.12-.069-.02-.365.24-.403.28-.055-.032-.099-.066-.144-.1-.034-.09.107-.544.197-.547.128-.138.345-.215.34-.405-.006-.151.088-.27-.043-.394-.034-.09-.05-.038-.147-.035-.13.049-.16-.29-.135-.375-.008-.224-.049-.455-.055-.673a.5.5 0 0 1-.044-.147c-.003-.096-.06-.477-.12-.534-.058-.163-.043-.49-.166-.606-.003-.1-.174-.32-.292-.317-.084-.077-.349-.13-.468-.127-.087-.082-.466.023-.53.091-.058-.017-.33.134-.37.176-.11.003-.226.265-.362.317-.14.152-.282.264-.43.423-.163.061-.21-.226-.278-.293-.08-.074.002-.224.064-.292-.03-.082.444-.589.51-.662.076-.081.721-.73.799-.706.094-.104.383-.25.51-.254.114-.123.415-.082.544-.22.094-.101.3-.098.385-.19.15-.005.347-.265.223-.382-.076-.07-.26-.174-.363-.17-.14.004-.293-.06-.431-.055-.214-.064-.443.138-.655.145-.047.05-.36.212-.437.215-.1.11-.258.166-.363.278-.124.005-.253.255-.386.303l-.807.87c-.03.098-.182.312-.293.315-.059-.056-.409.044-.412-.036-.09-.085-.018-.108-.178-.102-.137-.13-.011-.549.1-.669.083-.09.163-.425.159-.547.075-.08.022-.214.05-.308.04-.043.004-.378-.034-.413-.121-.115-.227-.334-.386-.328-.06-.056-.49-.038-.582-.035-.077-.072-.213.011-.288.014-.093-.029-.237.15-.351.155-.079-.024-.144.082-.192.133-.023.026-.496.23-.241.22.054-.001.156-.024.195.014.096-.003.11.049.112.135-.02.06-.059.369-.04.42.004.122-.1.237-.098.358-.035.038-.159.392-.145.425-.053.054-.323.682-.315.704-.138.148-.17.367-.308.514-.107.117-.201.44-.375.446-.047-.044-.069-.141-.146-.14-.154-.145-.007.234-.063.294.006.216.022.125.18.172.19.179.87.08 1.145.071.129-.003.143-.083.245-.121.13-.141.296-.206.434-.354.147-.056.259-.24.363-.353.128-.135.224-.522.408-.59-.04.132.415.369.266.53-.042.043-.365.608-.351.641-.076.082-.103.183-.173.258-.018.059-.094.212-.133.256-.112.12-.144.337-.255.457-.039.042-.33.537-.32.567-.042.047-.337.534-.322.573-.056.061-.274.419-.248.49-.093.102-.073.222-.17.328-.024.079-.332.505-.32.537l-.24.26c-.061.201-.3.39-.447.551-.078.003-.441.348-.308.474-.047.156.114.135.2.16.194-.006.376.023.571.017.07-.003.123.123.18.062.297-.009.605-.09.81-.31.105-.116.113-.145.152-.277.056-.062.023-.157.047-.233-.018-.047.038-.45.072-.486-.017-.045.342-.746.4-.807.034-.037.207-.433.256-.388-.022.068.047.044.075.071.14-.004.334.354.44.455.089.085.181.135.275.223.149.142.432.16.58.3.141-.004.414.281.541.236.08.076.577.11.696.065.116-.003.045.082.112.144-.015.047.113.214.15.247.079.076.013.395.188.389.09.086.328-.02.406-.102.027-.03.047-.01.072-.036.16-.006.084-.13.155-.208-.038-.103.335-.473.392-.536.153-.165.141.138.144.213.088.083-.195.349-.162.438-.045.05-.186.278-.183.343-.076.08-.471.576-.438.664-.117.125-.138.26-.256.389-.097.003-.09.094-.138.147-.045.15-.144.153-.24.26-.128.002-.339.137-.192.277.003.107.18.104.234.154.16-.006.333.028.454.143.168-.006.338.002.454-.123.126-.004.23-.136.261-.24.105-.112-.045-.359.003-.523.05-.051.05-.124.103-.18-.004-.01.194-.546.21-.565-.033-.092.3-.432.342-.479s.222-.196.227-.062c.006.182.032.363.038.552-.08.087-.2.182-.152.316-.122.132-.357.025-.253.314-.132.14.246.3.335.382.098.095.223.145.324.241.197.185.652.123.927.114a1 1 0 0 0 .19-.348c.115-.124.186-.24.304-.368.258-.276.526-.525.782-.801.071-.026.1-.11.171-.114.14-.148.315-.308.465-.469.108-.116.273-.14.368-.242.078-.003.13-.114.21-.116m-5.895-.633c-.16.06-.189-.187-.344-.182-.05-.047-.353-.15-.42-.149-.105-.1-.3-.007-.393-.095-.003-.111-.133-.111-.04-.211-.022-.058.09-.125.028-.184-.006-.221-.065-.414-.002-.63.05-.052.167-.328.164-.4.065-.07-.003-.379.171-.327.21-.006.265.214.401.343.108.101.146.113.149.245a.66.66 0 0 1-.185.313c-.065.22-.325.323-.23.584.045.044.009.054.095.051.13.125.335-.036.435-.142.117-.003.088-.167.153-.237.21-.226.121.188.156.28-.042.14.099.485.014.577zm.94-1.785c.068-.076.036-.54.033-.668.051-.057-.04-.101-.021-.162-.17-.16.022-.505-.093-.613-.003-.07-.125-.61-.25-.476-.168.006-.197-.002-.313.124-.046-.013-.403.434-.496.534-.074.079-.072.247.005.32-.024.082.385.404.388.51.097.092.227.032.362.027.142.135.238.264.385.404m-2.957.543c-.055-.052-.161.088-.21.042-.112.003-.306.021-.31-.114-.143-.133.206-.268.201-.4.112-.121.112-.305.221-.422-.015-.044.263-.547.317-.607-.001-.07.173-.368.223-.421.018-.018.044-.158.098-.106.16.148.168.183.175.403-.014.049.027.082-.016.13-.206.219-.206.556-.401.765-.014.046.004.038-.03.076-.044.141-.268.455-.217.599zm13.132-2.941c-.068-.122.11-.03.036.01-.013-.026-.012-.024-.036-.01m.524.262.067.02c.085.156.198.085.321.168.177.05.256-.012.39-.14.175-.098.343-.175.448-.333.204-.114.316-.624.383-.863l.106-.38c.03-.103.032-.285.09-.37.065-.233.03-.437.093-.658-.007-.14.099-.182.208-.15.074-.043.526-.071.607-.049.085-.047.158-.009.252-.06.123.035.264-.094.404-.053.223.062.417-.028.617-.143.188-.105.467-.452.664-.461l.089-.052c.095-.053.42-.248.444-.338.104-.06.18-.249.245-.346l.197-.112c.062-.22.124-.369-.133-.443-.097-.174-.51-.294-.68-.199-.153-.044-.493.015-.641.099-.206.115-.435.102-.632.214-.05-.014-.26.058-.304.083-.138.08-.343.05-.476.125-.165-.047-.356.236-.5.195-.047.026-.315.102-.345.05-.172-.05-.049-.344-.114-.462.021-.07-.105-.348-.153-.433-.171-.118.056-.183.16-.24.172-.1.517-.274.572-.468.04-.146-.012-.244-.16-.285-.06-.11-.413-.084-.52-.114-.182-.051-.334-.152-.517-.203-.155-.044-.23-.18-.383-.223-.075-.134-.302-.029-.393.021-.086-.024.067-.476.147-.52.052-.185-.324-.05-.387-.014-.08.044-.43.348-.426.416-.099.056-.185.193-.276.244-.02.067-.46-.074-.545-.099-.096-.17.492-.465.575-.588.218-.123.405-.285.634-.414-.003-.052.246-.203.304-.237.16.047.396-.186.56-.076.026.01.194.034.214.022.202.057.177.658.184.799.002.006.162-.002.203-.003.16.045.272.165.442.07.086-.049.203-.034.254-.112.072-.04.337-.224.356-.289.158-.09.319-.212.366-.382.016-.06.102-.24.07-.302.06-.22-.219-.279-.293-.41-.091-.168-.206-.172-.385-.224-.085-.059-.532-.16-.61-.117-.084-.024-.435.014-.514.058-.11-.032-.244.1-.338.073-.257.144-.448.34-.686.475-.102.15-.468.206-.506.342-.082.046-.65.462-.648.486l-.134.076c-.036.02-.121.115-.12.154-.133.076-.362.47-.543.419-.032.018-.078.032-.076.076.018.035-.062.21-.102.232l-.156.088c-.039.023-.356.33-.356.344-.087.052-.542.463-.539.537-.035.02-.258.238-.258.266-.125.07-.47.415-.505.541-.034.02-.084.07-.082.11-.085.05-.412.297-.455.224-.04-.073.034-.199-.01-.28-.005-.074.072-.535.107-.588a1.1 1.1 0 0 1-.05-.291c-.076-.137-.016-.343-.09-.476-.019-.035.019-.528.057-.583-.032-.059.015-.174-.026-.249-.048-.085-.004-.277-.045-.35-.006-.144-.087-.358.007-.5.037-.13.037-.35.152-.142.094.028.172.085.268.113.06.107.309-.239.345-.26.047-.168.214.225.267.322-.082.12.395.294.17.422-.034.124-.197.415-.14.518.06.105.029.164.087.27.154.046.331-.01.472-.09.11.031.388-.275.482-.328-.003-.063.632-.598.736-.656.099-.056.193-.333.326-.297.11-.062.262-.083.301-.224.047-.028.006-.148-.02-.198-.083-.056-.425-.135-.507-.088-.109-.03-.238.208-.235.308-.104.155-.236.3-.41.4-.105.058-.283.209-.392.134.037-.132.031-.379.105-.493.088-.048.138-.53.219-.649a1.4 1.4 0 0 1 .13-.337c.04-.144.095-.27.138-.421-.01-.245.327-.272.468-.354.051-.179.342-.08.445-.138.041.01.037.044.08.043.072.02.184.063.163.14-.093.137-.062.529-.188.6-.053.191-.327.337-.503.435q-.01.02-.012.032c-.229.129.195.02.21.024.055-.03.144-.053.182.017.033.056.294.01.365-.029-.001-.021.412-.376.462-.406.105-.058.152-.284.221-.387-.007-.178.11-.275.014-.448.032-.116-.386-.52-.477-.546-.049-.088-.388-.068-.47-.02-.086-.025-.39.043-.472.09-.18-.051-.608.516-.755.25-.03.002-.033-.004-.047-.028-.17-.114-.281-.137-.476-.028.076.135.214.217.163.405-.028.094-.403.314-.512.377-.076.042-.144.145-.214.184-.03.107-.226.136-.25.22-.103.06-.192-.162-.315-.197-.198.112.123.37-.097.495-.264.227-.229.001-.323-.169-.047-.085-.11-.085-.16-.172-.137-.25.625-.5.844-.622.025.007.031.015.054.001-.003-.077.31-.299.367-.382.14-.08.289-.141.372-.267.137-.077.238-.253.39-.34l.459-.258c.162-.092.298-.138.453-.224.09.026.042-.08.077-.132-.026-.548-.524-.143-.782.001-.06.035-.476.326-.474.389-.117.066-.653.367-.648.455-.149.083-.199.223-.328.296-.033.118-.687.476-.842.564-.15.085-.268.183-.42.268-.162.093-.248.252-.416.348-.058.083-.482.34-.48.39-.05.028-.046.058-.094.086-.14.208-.423.378-.673.46-.14.078-.265-.05-.39.02a.8.8 0 0 1 .087.359c.1.179.374.14.541.047.11.03.256-.18.34-.226-.005-.13.425-.267.464-.405.12-.069.144-.193.214-.298.123-.07.22-.179.327-.24.075.022.097.351.102.44-.037.05-.165.745-.134.8-.05.074-.106.54-.065.611-.026.04-.051.478-.033.514-.023.037-.052.477-.03.513-.03.041-.065.625-.046.663a.8.8 0 0 0-.018.164c.04.074-.027.246-.023.332-.075.271-.01.619-.086.887.042.076-.03.28-.026.366.044.08-.038.35-.032.458.038.067-.024.25-.02.33-.066.233.013.482.022.715.027.049.076.384.064.426.124.226.404.469.645.539.103.029.16.26.282.192-.006-.147.289-.308.397-.368.115-.064.084-.217.031-.313-.001-.027.008-.03-.006-.053-.04-.074-.15-.62-.125-.656-.075-.134-.025-.342-.097-.472.02-.069-.04-.445-.075-.508-.007-.145-.059-.551.103-.642.117.033.569-.437.597-.537.056-.032.08-.133.143-.168-.005-.102.184-.193.27-.241.031.053-.017.124.019.19-.052.075.065.331.108.409-.03.042.143.434.148.524.082.15.136.73.285.773.056.101.133.136.221.195.044.08.26.09.356.117.018-.01.083-.164.073-.184-.008-.153-.118-.477-.265-.577-.049-.088-.105-.132-.15-.211-.152-.105-.197-.417-.282-.568-.133-.24-.253-.514-.38-.743a.5.5 0 0 1 .077-.22c-.005-.083.17-.229.213-.296.084-.048.234.2.323.225.073.02.149.105.232.102.045.083.938.371 1.036.317.068.018.1-.053.103.028-.029.105-.129.766-.259.73-.088-.06-.516.185-.51.32-.18.102.084.413.16.548.137.04.068.144.074.247.076.136-.225.48-.218.65-.015.057-.062.152-.059.208-.03.11-.121.323-.216.378-.084.124-.093.33-.135.484.035.067-.053.112-.05.18-.05.178-.067.181.03.358-.015.023.127.228.16.286.066.118.182.13.246.244.162.047.315.18.377-.046.027-.101.029-.283.088-.37-.033-.062.192-.56.226-.676.035-.021.213-.613.19-.66-.007-.108.1-.218.152-.293.138-.079.127-.369.215-.497-.003-.069.238-.176.296-.135.128-.073.515-.044.666 0 .062-.037.671-.043.724.053.094.026-.127.406-.12.508-.043.024-.204.57-.2.638-.019.067-.181.334-.228.361-.09.134-.185.369-.329.45-.212.316-.557.286-.87.197-.036-.064-.205-.085-.266-.05-.059.031.235.109.253.144.074.02.606.209.432.306.015.029.021.027.051.035m-.37-.141c-.013-.023-.008-.027-.033-.014-.065.037.284.199.208.06-.062-.019-.13-.072-.176-.046m-2.493-7.464-.013-.025c.028-.1-.128-.388-.18-.482-.063-.112-.134-.243-.002-.319.159-.09.263-.29.42-.38.086-.049.333-.44.346-.164-.029.04-.009.092-.053.118-.081.288-.206.534-.288.825-.092.14-.068.336-.23.427m3.663 2.026c-.042-.012-.309.064-.354.09-.019-.014-.623.118-.67.145-.066-.044-.56-.035-.63.006a.6.6 0 0 1-.415.035c-.055.03-.7-.221-.738-.287-.207-.144-.005-.11.035-.251.151-.087.27-.43.456-.378l.012.024c.105.03.055.28.183.273.096.027.21.146.31.088.258.073.643-.308.881-.44.153.044.148.067.305-.02.02.005.031.005.051-.007.106-.06.49.199.548.306.08.022.256.263.149.323-.05.03-.07.064-.123.093m.43 1.506q-.018-.012-.03-.015c-.19.108-.683.185-.888.126-.092-.026-.137-.033-.109-.138-.006-.133.208-.255.128-.399.03-.106-.11-.256-.003-.317.057-.033.095-.023.147-.052.092.026.528-.188.555-.138.256.073.412.504.35.73-.031.045.019.076-.054.118-.014.052-.047.058-.096.085m-4.67-6.873c-.065-.018-.253.023-.315.06-.118.004-.306.116-.41.086-.108.06-.494.141-.605.11-.114.065-.303-.036-.394.016-.144.006-.606-.094-.679-.224-.054-.038-.201-.293-.148-.325.147-.082.24-.014.392-.021.055-.03.444.048.512.095.041-.024.435-.059.471-.035.085-.048.493-.038.514-.113.218-.125.573-.167.715.09.042.075.026.217-.053.261m12.05 6.204c-.123-.038-.158-.024-.185-.173-.067-.048-.274-.086-.29-.182-.106-.074-.138-.226-.16-.353-.218-.155.11-.646.077-.842-.04-.241.135-.557.091-.816-.014-.071.042-.591.098-.633-.037-.226.09-.495.049-.73.12-.409-.21-.854-.517-1.07-.12-.083-.366-.543-.256-.705-.045-.26.515-.032.626.045l.374-.067c-.04-.23.041-.329.005-.538-.012-.068.015-.47.066-.507-.033-.183.063-.365.03-.543-.027-.153.034-1.118.014-1.134-.142-.1-.112.147-.257.173-.452.08-.812.142-1.194-.128-.136-.04-.212-.145-.326-.226-.353-.25.447-.588.614-.619a6 6 0 0 1 .527-.355c.012-.037.573-.462.632-.473.004-.01.445-.39.465-.393.107-.156.316-.267.435-.438.18-.26.531-.138.765-.312.257-.047.431.262.465.455.02.104-.072.503.045.585.026.141.146.561.244.63.077.452.54.776.626 1.254.028.17.254.5.401.545.05.034.097.074.146.109.096.068.646.048.609-.166.063-.092.02-.863-.055-.917-.012-.066-.014-.175-.105-.158-.328.058-.917 0-.987-.397.027-.005.08.02.106.036.262-.046.447.049.713.001.262.08.338-.274.306-.464.028-.094-.103-.975.26-.719.2.141.477.293.384.604.032.174-.28.478.053.578.02.118.402.346.118.397-.201-.144-.272.484-.251.61.006.034.283-.382.329-.446.072-.108.457-.593.44-.695.064-.218.505-.485.461-.725.015-.05.112-.247.106-.282.514-.74-.695-.377-.88-.508-.09.015-.529-.118-.564-.006-.324.058-.831.197-1.018.463-.05.009-.04.057-.094.066-.154.225-.409.15-.607.01-.1-.07-.35-.173-.179-.302.055-.182.658-.378.847-.411 0-.002.397-.226.421-.23.36-.065.608-.207.949-.268.284-.05.548.156.86.102.159-.029.582-.028.704.059.188-.033.547.16.665.32.217.153.288.57.219.81.02.132-.441.628-.535.76-.253.365-.517.65-.77 1.015-.242.35-.304.758-.544 1.1-.12.092-.383.283-.56.157-.152.027-.017.675.001.772.08.055.21-.067.294-.082.35-.06.753-.296 1.094-.194.485-.085.892.657.618 1.051.017.099-.479.857-.59.877-.343.256-.566.59-.811.943-.052.075-.271.207-.04.213.272-.049.738.038.91-.211.211-.038.387.087.577.053.436-.077 1.081.745.963 1.145.02.111-.105.331-.22.35-.065.05-.16.061-.228.013-.406.073-.785.012-1.212.088-.199.035-1.241.179-1.277.305-.172.03-.735.244-.896.13-.257-.183-.563-.458-.618-.767-.092-.066-.198-.377-.22-.5l-.06-.35c.353-.062.453-.723.788-.784.027-.09.81-1.077.312-.989-.215.038-.403.332-.603.369a.76.76 0 0 1-.32.212c-.147.026-.198.114-.335.136-.262.047-.363.091-.57-.053-.202.037-.358-.417-.469-.045-.094.135-.178.138-.145.33-.135.1-.486.873-.462 1.01-.046.034-.24.679-.229.741-.044.033-.21.569-.199.63-.053.039-.074.251-.125.326-.121.174-.303.429-.267.643-.233.173-.115.564-.432.62-.063.049-.159.05-.24.065m1.634-5.265c-.009-.048.08-.138.071-.19.103-.019-.054.283-.07.19m.353-.473c-.033-.185.173-.285.056-.117.008.044-.012.108-.056.117m-.07-.399c-.016-.092.058-.11.075-.012zm.056-.115c-.01-.064.007-.127.028-.006zm-.17.75c-.032-.022-.061-.069-.017-.1.068-.013.08.09.018.1m.008-.233c-.004-.033.069-.329.111-.097-.09.015-.032.246-.138.102zm-.757 1.528c-.008-.047-.174-.122-.082-.191-.017-.096.01-.257-.085-.324-.016-.095-.166-.42-.235-.468-.01-.058-.118-.492-.053-.584-.02-.119-.02-.916.043-.965-.006-.033.14-.639.14-.64-.017-.105-.1-.587-.034-.637-.038-.22.556-1.026.744-1.165.094-.322.233.273.285.31.02.112.316.64.402.7.013.079.353.6.417.619.005.027.299.458.31.461.011.056.404.425.452.416.165-.03.39.03.49-.115.07-.013.29-.122.354-.035.214-.038.11.194.135.336.024.144.015.642-.164.674-.115.167-.559.403-.763.44-.087.065-.308.121-.343.245-.163.03-.68.067-.795-.015-.049.01-.197.043-.199.035-.028-.021-.168-.001-.086-.062-.018-.1.167-.689-.047-.38-.065.093-.2.424-.3.442-.168.124-.447.878-.512.89zm.895-.13c-.01-.062.156-.34.2-.348.055-.01-.09.328-.2.347m.006-.574c.097-.14-.144.06-.162-.043.064-.012.114-.144.22-.066.017.098-.062.247-.085.113zm-.312-.017c-.021-.12.16-.14.138-.258.052-.176.155-.077.036.093-.05.073-.084.15-.174.165m.21.756q0-.01-.004-.02c-.013-.075.073.009.003.02m-.028.006-.005-.022c.04-.006.044.014.005.022m.124-.172c.068-.012-.059.106-.053.137-.068.012.029-.132.053-.137m12.05 2.283c-.174-.13-.46-.099-.61-.314-.073-.014-.437-.55-.411-.69-.112-.16-.01-.402-.11-.586-.178-.335.03-.867.087-1.201.177-.126.618.11.667-.164.25-.177 1.011-.81 1.056-1.05.136-.096.67-.741.71-.82.074-.136.367-.291.24-.475.013-.085-.225-.323-.3-.336-.143-.21-.217-.472-.369-.69.035-.192-.26-.59-.028-.826.322-.334.8-.068 1.172-.129.388-.063 1.074.008 1.398-.258.091-.077.197-.098.291-.182.355-.31 1.457.565 1.395.917.114.165.137.541.102.74.09.132-.174.547-.199.685-.087.495-1.224.701-1.3 1.135-.383.267-1.535.755-1.619 1.23-.09.026-.401.346-.201.382.132-.179 1.448-.032 1.77-.022.13.004.172-.002.241.1.2.036.773.247.85.514.388.07.456 1.195.417 1.412.058.082-.179.432-.262.492-.026.157-.655-.119-.742.001-.58-.105-1.173-.006-1.768-.114-.224-.04-.593.102-.84.105-.275.005-.625.071-.9.023-.184.129-.514.162-.737.121m10.381 3.777c-.06-.225-.804-.314-.874-.563-.154-.088-.463-.772-.36-.959-.17-.618.207-1.19.507-1.727.153-.043.162-.525.374-.514.03-.053.158-.176.197-.152-.095.171.308.02.167.27.026.095-.112.288.008.356.054.2.109.35.29.454.013.04.091.173.125.191.075.278.57.361.82.291.139-.04.602-.042.686-.192.253-.072.515-.509.657-.762.156-.28-.31-.317-.377-.56-.22-.124-.25-.955-.147-1.14.216-.385.029-.56-.07-.912.193-.343.471.157.62.241a.5.5 0 0 1 .227.275c.094.341.994.228 1.251.241.106.06.499-.265.547-.353.229-.155.605-.413.742-.657.097-.068.43-.534.502-.53.07-.127.454-.558.28-.656-.056-.205-.527-.658-.432-.831.08-.053.456.051.476.127.114.064.888.42.882.535.183.104.57.64.47.82.065.238-.416 1.311-.597 1.436-.08.14-.656.417-.569.549.097.055.328.296.456.26.222.127.874.717.72.994l.01.038c-.192.345-.296 1.522-.939 1.155-.112-.006-.581-.18-.645-.137-.277-.158-.59-.104-.91-.287-.207-.01-.561.014-.408.319.11.222.11.449.34.581.034.12.587.654.719.73.032.116.624.587.754.66.362.209.64.54 1.002.749.22.126.516.53.583.772.036.132.317.312.226.474-.08.143-.584.627-.779.515-.121-.006-.309.09-.42.026-.197-.01-1.052-.125-1.12-.377-.08-.044-.114-.08-.138-.165-.187-.106-.661-.453-.723-.676-.329-.189-.306-.815-.582-.973-.104-.158-.256-.523-.412-.611-.032-.12-.251-.528-.34-.58-.055-.08-.131-.186-.219-.235-.183-.106-.76.788-.948.915-.202.36-.744.62-1.074.845-.114.202-.802.094-.96.003-.105.029-.49-.214-.595-.273m10.82 10.158c.063.071.127.094.177.15.427.498 1.306-.066 1.67-.385.086.006.251-.203.315-.176.098-.085.536-.34.642-.296.026-.02.427-.405.527-.397.114-.099.27.003.341-.06.07-.018.474.303.57.342.077.09.654.652.601.783.055.063.267.315.262.379.065.076.412.073.479.014.201-.052.27-.292.283-.478.012-.202.108-.651-.018-.798.105-.256-.703-.933-.85-1.101-.103-.122-.23-.194-.335-.316-.203-.085-.07-.349 0-.267.138-.036.34.058.456.106.125.146 1.162-.018 1.179-.258.077-.068-.006-.897-.112-1.019.021-.291-1.165-1.715-1.471-1.636a2.4 2.4 0 0 0-.355-.134c-.045-.053-.534-.273-.586-.258-.083-.095-.28-.1-.356-.188-.097-.114-.409-.085-.509-.2-.273-.018-.68-.291-.856-.495-.138-.16-.15.307-.201.352-.011.152-.038.284-.05.44-.016.232.333.575.528.656.144.17.396.054.577.13.202-.053.778.243.903.39.173-.046.803.198.935.352.049-.012.556.505.549.635-.113.099-.306.006-.434.04-.257-.019-.518-.076-.777-.094-.256-.019-.292.09-.462.24-.04.034.033.312-.086.175-.196-.013-.47-.499-.623-.46-.051-.058-.101-.043-.153-.104-.167-.01-.298-.534-.42-.677-.04-.162-.315-.259-.434-.154-.1-.043-.099.115-.138.148-.015.246-.329.818-.14 1.04-.022.316.035.582.247.826.04.156.402.234.514.363.083-.023.468.429.46.535-.02.325-.807.55-1.1.625-.058.052-.392.118-.443.058-.11-.437-.406-.862-.373-1.326-.026-.099.267-.272.277-.411.073-.064.31-.52.106-.536l-.151.132c-.197-.013-.338.176-.515.222-.082.071-.155.03-.253.056-.21-.088-.712.605-.674.757-.019.276-.176.689.025.92-.006.092.017.448.072.51-.013.185.233.722.18.848m-.906-6.407c.055.062.097.008.121.097-.056.049.088.05.117.062.086.099.421-.167.501-.236.177-.155.433-.15.603-.298.15-.04.36-.179.485-.286.264-.232.73-.173.99-.4.2-.052.275-.224.466-.002.035-.01.557.414.609.473.174-.046.67.428.783.558.188.219.423.332.663.433.09.103.29.1.397.226.052-.014.247.162.31.2.318.368.693.614 1.017.99a.09.09 0 0 1 .087.026c.213-.056.453.423.444.59q.17.2.342.399c.096.11.248.576.24.704.062.07.084.341.078.44.12.14-.444.251-.522.318-.302.267-.067.89.156 1.148.036.041.089.03.133.078.09-.023.262.306.317.368.143.169.315.122.5.2.05.058.31-.084.4-.046.081-.075.17-.146.178-.26.13-.114.129-.934.052-1.024-.04-.15.024-.427-.076-.543.073-.177-.182-.7-.165-.927.013-.218-.188-.453-.335-.62-.074-.086-.21-.21-.203-.321-.052-.207.286-.222.373-.3.194.014.404-.278.607-.263.252-.222.65-.269.91-.495.11-.095.419-.027.526-.121.073-.064.253-.136.344-.099.244-.063.362-.347.379-.571.095-.085-.256-.563-.352-.672-.081-.094-.088-.219-.172-.317a1.5 1.5 0 0 0-.108-.314c.06-.143-.267-.437-.285-.184-.19.168-.05.84.002 1.042.018.021.023.027.012.056.157.184.123.167-.038.308-.04-.017-.568.294-.63.35-.177-.204-.11-.764-.09-1.038-.065-.076-.248-.006-.255.095-.323.284-.297.7-.326 1.09.098.114.059.114-.032.195-.168-.012-.727.467-.697.04-.07-.081-.027-.406-.02-.521.011-.132-.144-.255-.133-.39-.224-.26-.474.608-.37.73-.012.179-.01.337.11.478-.008.097-.372.183-.452.09a.54.54 0 0 1-.33-.181c-.127-.148-.176-.114.004-.27.225-.06.08-.39.093-.553-.067-.077-.14-.895.076-.805.074.087.6.035.736.093.033.036.259.047.32.051.116.135.402-.17.412-.287.022-.353.048-.699.07-1.043.011-.158.516.067.585.095.105.122.364.32.5.2a.26.26 0 0 1 .063-.12c.059-.052-.06-.377-.116-.442.032-.078-.197-.123-.257-.108-.321-.133-.86.082-.821-.497.144-.126-.271-.757-.293-.445-.174.153-.17.404-.184.633-.125.109-.196-.02-.32.012-.124-.052-.764-.055-.753-.215.188-.166.421-.436.642-.528.24-.21.564-.898.28-1.226-.172-.202-.134.082-.21.149-.027.414-.329.694-.648.977-.013.16-.493.377-.503.543-.44.385-.853.811-1.297 1.202-.056.049-.256.08-.262.164-.1.088-.168.176-.267.263-.068.059-.092.435-.278.216-.087-.098-.328-.181-.356-.295-.149-.173.128-.114.165-.146.103-.027.425-.416.431-.508.367-.323.696-.686 1.064-1.009a.7.7 0 0 1 .16-.204c.003-.044.205-.383.24-.413.079-.07.222-.408.23-.508.09-.079.046-.492-.09-.455-.028-.034-.105.092-.15.132-.013.162-.01.238-.133.346-.01.14-.248.265-.259.402-.174.154-.284.317-.462.471-.112.19-.35.28-.457.466-.284.249-.496.537-.791.795-.005.098.024.335-.058.356-.22.194-.246-.171-.383-.135-.053-.063-.445-.487-.504-.471-.082-.095.054-.22.06-.322.023-.311-.233-.395-.465-.191-.229-.094-.607.358-.753.487-.175.153-.454.167-.645.333-.044-.018-.585.29-.717.325-.118.105-.39.04-.509.143-.256-.019-.804.307-.824.593-.133.118-.018.26-.027.394m7.708-.874.003-.04c-.052-.06-.023-.46-.015-.559.066-.162-.1-.22.154-.201.085.098.61-.007.752.053.065.004.228.066.281.02.111.128-.001.527-.013.685-.026.378-.974.26-1.162.042m-1.19-.065c.007-.106.49-.408.411-.499.052-.044.262-.312.285-.287-.01.157-.106.493-.003.613-.005.07.03.097.003.162-.02.281-.374.034-.54.078-.061-.027-.107-.01-.155-.067m-.936.646c.025-.02.182-.03.217-.015a.8.8 0 0 1 .617-.208c.113-.03.815.094.803.275.116.135-.052.44.066.576-.007.13.188.627-.109.605-.12-.138-.588-.738-.74-.699-.205-.24-.643-.29-.854-.534M51.5 2.736C24.56 2.736 2.71 24.797 2.71 52s21.85 49.265 48.79 49.265c26.941 0 48.792-22.06 48.792-49.265 0-27.204-21.85-49.264-48.792-49.264m0 .486C24.825 3.222 3.19 25.066 3.19 52s21.636 48.778 48.31 48.778S99.81 78.936 99.81 52 78.178 3.222 51.5 3.222m0 16.435C33.811 19.657 19.47 34.14 19.47 52s14.342 32.343 32.03 32.343S83.533 69.86 83.533 52 69.19 19.657 51.5 19.657m0 1.604c-16.81 0-30.443 13.766-30.443 30.739s13.632 30.74 30.443 30.74S81.944 68.973 81.944 52 68.31 21.261 51.5 21.261M10.385 40.207l-.252.735q-1.25-.45-1.739-1.193-.49-.742-.159-1.71.353-1.032 1.363-1.233 1.012-.203 2.77.406 1.836.64 2.49 1.417.654.776.279 1.873-.312.914-1.006 1.227-.695.314-1.663-.024l-.082-.029.244-.717q.68.236 1.174.048.494-.185.685-.74.232-.68-.32-1.207-.554-.527-2.072-1.054-1.483-.517-2.217-.426-.734.088-.974.794-.193.57.164 1.033.358.466 1.212.763zm-2.98 1.554 6.856 1.346-.151.792-2.828-.556-.496 2.58 2.827.556-.152.791-6.859-1.345.153-.792 3.34.656.497-2.58-3.34-.656zm2.487 6.629q1.679.06 2.308.403.63.345.603 1.141-.028.806-.664 1.101-.639.296-2.345.235-1.714-.06-2.332-.4t-.589-1.145q.028-.796.682-1.095.654-.3 2.337-.24m.03-.82q1.948.07 2.785.633.835.561.794 1.755-.041 1.204-.906 1.702-.863.498-2.831.43-1.966-.07-2.794-.627-.827-.554-.785-1.763.042-1.187.921-1.694.88-.503 2.815-.435M6.25 53.592l6.97-.493.072 1.051-5.808 2.864 5.973-.496.051.758-6.97.492-.068-1.004 5.984-2.913-6.152.498zm1.397 9.541.932-.262q-.58-.066-.956-.405-.38-.343-.51-.918-.255-1.113.5-1.84.756-.729 2.616-1.162 1.853-.431 2.813-.074.96.355 1.239 1.568.215.934-.223 1.587-.434.653-1.428.896l-.174-.758q.69-.187.996-.604.305-.42.17-1.009-.184-.8-.954-.976-.77-.179-2.473.218-1.364.318-1.939.833-.573.515-.401 1.26.151.675.747.909.591.237 1.57.007.12-.027.182-.044l.12-.036-.354-1.556.689-.161.523 2.295-3.548.827zm2.223 4.714a.9.9 0 0 1-.288-.267 1.7 1.7 0 0 1-.203-.44q-.241-.75.271-1.257.51-.505 2.118-1.03 1.603-.528 2.307-.422.706.106.947.859.248.768-.255 1.268-.503.496-2.207 1.056a10 10 0 0 1-1.075.29 6 6 0 0 1-.944.118l.327-.806-.635-.268zm-.294.707a1.26 1.26 0 0 1-.485-.426 2.7 2.7 0 0 1-.367-.772q-.363-1.131.291-1.911.657-.778 2.498-1.38 1.857-.61 2.833-.37.975.241 1.34 1.376.369 1.147-.273 1.912-.645.766-2.515 1.382a9.6 9.6 0 0 1-1.58.392q-.682.098-1.09-.004l-.364.959-.634-.237zm.803 2.34 6.38-2.87.326.737-6.382 2.868zm1.07 2.226 6.11-3.42.506.922-4.067 5.073 5.207-2.998.365.664-6.112 3.42-.483-.88 4.204-5.193-5.366 3.076zm5.245 8.053.735-.636q-.551.19-1.038.041-.486-.148-.845-.613-.697-.9-.317-1.882.381-.98 1.885-2.17 1.497-1.18 2.518-1.267 1.02-.088 1.78.893.584.756.462 1.534-.12.776-.921 1.421l-.474-.613q.55-.464.65-.972.1-.512-.267-.986-.5-.648-1.274-.478-.773.166-2.148 1.251-1.105.874-1.41 1.583-.306.712.161 1.315.422.546 1.06.503.634-.039 1.425-.663.097-.076.148-.118.051-.043.093-.083l-.973-1.26.558-.44 1.434 1.856-2.87 2.264zm9.056-.657-2.992 3.475q-.578.674-.765 1.004a1.5 1.5 0 0 0-.207.63q-.038.435.166.866.208.432.62.796.406.354.836.5.433.143.87.075.364-.059.679-.272.314-.21.893-.885l2.992-3.475-.574-.506-3.084 3.583q-.593.69-1.11.797c-.35.07-.693-.043-1.037-.343q-.506-.448-.465-.922.04-.478.685-1.225l3.083-3.58zm-.04 9 3.803-5.916.877.573-1.231 6.407 3.2-5.113.633.412-3.804 5.918-.836-.55 1.295-6.576-3.306 5.258zm5.046 3.048 3.28-6.228.705.38-3.28 6.227zm3.516 1.673.807-7.278.788.322-.8 6.23 3.752-5.026.726.296-4.404 5.813zm3.736 1.396 1.925-6.782 3.333.965-.202.705-2.589-.75-.62 2.179 2.42.7-.194.688-2.42-.701-.71 2.497 2.617.757-.202.712zm6.13-2.449.35-2.519 1.088.155c.498.071.85.22 1.045.446q.298.336.208.978-.09.666-.517.927-.423.262-1.236.147zm-1.281 3.676.972-6.985 1.94.274c.717.102 1.226.325 1.535.67q.46.516.332 1.422-.097.704-.47 1.08-.373.374-1.052.449.567.132.812.499.24.368.207 1.062-.012.255-.047.71-.087 1.154.17 1.442l-.957-.135q-.11-.261-.026-1.165.04-.453.054-.717.038-.731-.233-1.04-.272-.31-1.066-.422l-.985-.14-.432 3.103zm5.752-1.558.742.026-.009.252q-.023.718.292 1.098.315.377.96.399.58.022.923-.32.344-.34.365-.959.02-.495-.174-.77-.192-.274-.892-.57-.165-.071-.467-.195-.834-.341-1.007-.502a1.65 1.65 0 0 1-.41-.636 2.3 2.3 0 0 1-.114-.841q.03-.922.553-1.422.521-.502 1.416-.47.853.029 1.321.526.465.498.437 1.346-.001.025-.008.09a1 1 0 0 0-.008.087l-.718-.024.003-.074q.022-.595-.256-.927-.276-.332-.803-.352-.543-.018-.865.28-.324.298-.342.823-.018.5.186.78.202.284.91.576.085.033.25.103 1.081.446 1.285.655.252.253.362.604.114.354.097.837-.036 1.003-.601 1.544-.569.538-1.55.504-.974-.034-1.453-.602-.479-.567-.443-1.634zm5.496 2.26-.61-7.027.796-.07.608 7.027zm3.784-.308-.873-6.269-1.763.25-.101-.716 4.214-.597.1.716-1.659.235.873 6.269zm4.917-1.016-.743-2.624-3.166-3.583.895-.26 2.43 2.91.606-3.788.815-.236-.821 4.737.745 2.624zm6.462-6.1q-.79-1.498-.808-2.22-.02-.725.677-1.098.704-.377 1.276.03.573.41 1.375 1.934.805 1.529.823 2.237c.012.475-.22.836-.688 1.088q-.696.375-1.281-.049-.586-.42-1.374-1.923m-.717.384q-.915-1.74-.851-2.751.065-1.013 1.11-1.575 1.053-.564 1.912-.059.859.508 1.781 2.262.927 1.755.862 2.758-.063.999-1.12 1.566-1.039.56-1.913.043-.872-.517-1.781-2.244m6.976.187-3.804-5.916 2.706-1.774.385.599-2.036 1.335 1.224 1.902 1.895-1.244.394.616-1.895 1.242 1.802 2.8zm7.826-6.231.546-.59-4.586-4.317 1.14-1.236-.522-.493-2.903 3.141.523.495 1.216-1.317zm2.462-2.74 2.15-2.778-.578-.457-1.677 2.165-2.027-1.6 1.55-2.001-.556-.44-1.551 2.002-1.77-1.395 1.66-2.144-.573-.452-2.133 2.758zm2.684-8.181.41-.662q1.118.725 1.43 1.56.31.834-.228 1.702-.573.925-1.603.89-1.03-.03-2.608-1.026-1.645-1.039-2.109-1.944-.465-.906.144-1.888.507-.822 1.253-.967.747-.149 1.616.4l.074.046-.398.645q-.61-.385-1.133-.314c-.352.045-.627.233-.833.566q-.377.61.042 1.248.422.638 1.785 1.499 1.33.84 2.064.919.735.078 1.127-.555.315-.509.07-1.042-.244-.536-1.01-1.02zm3.366-.715-6.382-2.868.326-.737 2.63 1.183 1.059-2.401-2.632-1.183.326-.738 6.382 2.87-.324.736-3.11-1.397-1.059 2.401 3.109 1.397zm2.362-5.472-6.747-1.827.27-1.017 6.415-.798-5.807-1.494.194-.735 6.75 1.827-.26.97-6.596.79 5.977 1.55zm-1.794-7.016q-1.653-.294-2.23-.723-.577-.431-.439-1.215.137-.792.81-.998.673-.201 2.355.098 1.69.301 2.252.722.565.425.426 1.218-.137.785-.827.99-.689.204-2.347-.092m-.14.807q-1.923-.341-2.673-1.016t-.544-1.852q.208-1.186 1.13-1.556.924-.374 2.864-.028 1.938.345 2.681 1.012.742.665.535 1.857-.205 1.17-1.147 1.548-.94.374-2.846.035m4.275-5.444-6.97-.491.054-.788 6.219.44.194-2.81.751.053zm-3.276-4.776q-1.673.147-2.339-.117-.667-.266-.736-1.059-.07-.8.526-1.174.597-.371 2.301-.522 1.707-.15 2.362.11.653.263.722 1.064.067.795-.545 1.173-.613.377-2.29.525m.072.816q-1.945.172-2.842-.284-.898-.455-1-1.646c-.07-.797.16-1.4.692-1.8q.797-.6 2.759-.774 1.959-.174 2.85.278.887.449.992 1.652.101 1.186-.71 1.796-.812.609-2.741.778m2.269-10.022-.94.23q.576.086.942.439.366.357.477.936.217 1.118-.564 1.82-.78.7-2.654 1.07-1.865.365-2.813-.025t-1.185-1.612q-.18-.941.276-1.578.457-.64 1.462-.845l.147.765q-.698.161-1.017.567-.319.408-.206 1.003.156.806.921 1.009.764.204 2.477-.133c.92-.178 1.573-.433 1.968-.762q.59-.495.445-1.246-.13-.678-.716-.934-.583-.258-1.568-.064l-.185.038q-.063.015-.121.032l.301 1.568-.694.137-.445-2.312 3.578-.702zm-1.033-3.55-2.554.89-3.38 3.378-.301-.89 2.749-2.602-3.778-.411-.276-.81 4.728.58 2.556-.888zm-5.995-6.25c.576 0 1.043.472 1.043 1.051 0 .58-.467 1.05-1.043 1.05-.574 0-1.039-.47-1.039-1.05s.465-1.051 1.04-1.051m-74.212 0c.576 0 1.04.472 1.04 1.051 0 .58-.464 1.05-1.04 1.05-.574 0-1.04-.47-1.04-1.05s.466-1.051 1.04-1.051"/></svg>